<svg width="32" height="32" viewBox="0 0 32 32" fill="none" xmlns="http://www.w3.org/2000/svg">
<rect width="32" height="32" rx="5" fill="#F43F5E"/>
<path d="M28.517 17.9091H24.5114C24.483 17.5777 24.4072 17.277 24.2841 17.0071C24.1657 16.7372 24 16.5052 23.7869 16.3111C23.5786 16.1122 23.3253 15.9607 23.027 15.8565C22.7287 15.7476 22.3902 15.6932 22.0114 15.6932C21.3485 15.6932 20.7874 15.8542 20.3281 16.1761C19.8736 16.4981 19.5279 16.9598 19.2912 17.5611C19.0592 18.1624 18.9432 18.8845 18.9432 19.7273C18.9432 20.6174 19.0616 21.3632 19.2983 21.9645C19.5398 22.5611 19.8878 23.0109 20.3423 23.3139C20.7969 23.6122 21.3438 23.7614 21.983 23.7614C22.3475 23.7614 22.6742 23.7164 22.9631 23.6264C23.2519 23.5317 23.5028 23.3968 23.7159 23.2216C23.929 23.0464 24.1018 22.8357 24.2344 22.5895C24.3717 22.3385 24.464 22.0568 24.5114 21.7443L28.517 21.7727C28.4697 22.3883 28.2969 23.0156 27.9986 23.6548C27.7003 24.2893 27.2765 24.8764 26.7273 25.4162C26.1828 25.9512 25.508 26.3821 24.7031 26.7088C23.8982 27.0355 22.9631 27.1989 21.8977 27.1989C20.5625 27.1989 19.3646 26.9124 18.304 26.3395C17.2481 25.7666 16.4124 24.9238 15.7969 23.8111C15.1861 22.6984 14.8807 21.3371 14.8807 19.7273C14.8807 18.108 15.1932 16.7443 15.8182 15.6364C16.4432 14.5237 17.286 13.6832 18.3466 13.1151C19.4072 12.5421 20.5909 12.2557 21.8977 12.2557C22.8163 12.2557 23.6615 12.3812 24.4332 12.6321C25.205 12.883 25.8821 13.25 26.4645 13.733C27.0469 14.2112 27.5156 14.8007 27.8707 15.5014C28.2259 16.2022 28.4413 17.0047 28.517 17.9091Z" fill="#FFFDFD"/>
<path d="M7.71591 19H3.45455L8.25568 4.45455H13.6534L18.4545 19H14.1932L11.0114 8.46023H10.8977L7.71591 19ZM6.92045 13.2614H14.9318V16.2159H6.92045V13.2614Z" fill="#FAF8F8"/>
</svg>
